<svg xmlns="http://www.w3.org/2000/svg" xmlns:xlink="http://www.w3.org/1999/xlink" width="200" zoomAndPan="magnify" viewBox="0 0 150 44.999999" height="60" preserveAspectRatio="xMidYMid meet" version="1.0"><defs><g/></defs><g fill="#1e3a8a" fill-opacity="1"><g transform="translate(7.482423, 33.216921)"><g><path d="M 1.796875 0 L 1.796875 -20.671875 L 9.90625 -20.671875 C 11.46875 -20.671875 12.800781 -20.394531 13.90625 -19.84375 C 15.019531 -19.289062 15.867188 -18.507812 16.453125 -17.5 C 17.046875 -16.488281 17.34375 -15.300781 17.34375 -13.9375 C 17.34375 -12.570312 17.039062 -11.394531 16.4375 -10.40625 C 15.84375 -9.414062 14.976562 -8.65625 13.84375 -8.125 C 12.71875 -7.601562 11.359375 -7.34375 9.765625 -7.34375 L 4.3125 -7.34375 L 4.3125 -10.765625 L 9.25 -10.765625 C 10.082031 -10.765625 10.773438 -10.882812 11.328125 -11.125 C 11.890625 -11.375 12.3125 -11.734375 12.59375 -12.203125 C 12.875 -12.679688 13.015625 -13.257812 13.015625 -13.9375 C 13.015625 -14.625 12.875 -15.207031 12.59375 -15.6875 C 12.3125 -16.164062 11.890625 -16.53125 11.328125 -16.78125 C 10.773438 -17.039062 10.082031 -17.171875 9.25 -17.171875 L 6.03125 -17.171875 L 6.03125 0 Z M 13.34375 0 L 8.375 -9.390625 L 12.96875 -9.390625 L 18.03125 0 Z M 13.34375 0 "/></g></g></g><g fill="#1e3a8a" fill-opacity="1"><g transform="translate(25.680015, 33.216921)"><g><path d="M 8.640625 0.3125 C 7.078125 0.3125 5.726562 -0.0078125 4.59375 -0.65625 C 3.46875 -1.3125 2.597656 -2.226562 1.984375 -3.40625 C 1.367188 -4.59375 1.0625 -5.988281 1.0625 -7.59375 C 1.0625 -9.175781 1.363281 -10.5625 1.96875 -11.75 C 2.582031 -12.9375 3.441406 -13.863281 4.546875 -14.53125 C 5.660156 -15.207031 6.960938 -15.546875 8.453125 -15.546875 C 9.472656 -15.546875 10.421875 -15.378906 11.296875 -15.046875 C 12.179688 -14.710938 12.953125 -14.21875 13.609375 -13.5625 C 14.273438 -12.914062 14.789062 -12.101562 15.15625 -11.125 C 15.519531 -10.144531 15.703125 -9.019531 15.703125 -7.75 L 15.703125 -6.59375 L 2.703125 -6.59375 L 2.703125 -9.203125 L 13.703125 -9.203125 L 11.765625 -8.515625 C 11.765625 -9.316406 11.640625 -10.007812 11.390625 -10.59375 C 11.140625 -11.175781 10.769531 -11.625 10.28125 -11.9375 C 9.800781 -12.257812 9.207031 -12.421875 8.5 -12.421875 C 7.78125 -12.421875 7.171875 -12.257812 6.671875 -11.9375 C 6.171875 -11.613281 5.789062 -11.164062 5.53125 -10.59375 C 5.269531 -10.03125 5.140625 -9.382812 5.140625 -8.65625 L 5.140625 -6.828125 C 5.140625 -5.960938 5.285156 -5.226562 5.578125 -4.625 C 5.867188 -4.03125 6.285156 -3.578125 6.828125 -3.265625 C 7.367188 -2.953125 8.003906 -2.796875 8.734375 -2.796875 C 9.222656 -2.796875 9.664062 -2.867188 10.0625 -3.015625 C 10.46875 -3.160156 10.8125 -3.367188 11.09375 -3.640625 C 11.375 -3.910156 11.585938 -4.25 11.734375 -4.65625 L 15.5 -4.109375 C 15.257812 -3.222656 14.828125 -2.445312 14.203125 -1.78125 C 13.578125 -1.125 12.796875 -0.609375 11.859375 -0.234375 C 10.921875 0.128906 9.847656 0.3125 8.640625 0.3125 Z M 8.640625 0.3125 "/></g></g></g><g fill="#1e3a8a" fill-opacity="1"><g transform="translate(41.866378, 33.216921)"><g><path d="M 6.015625 0 L 0.375 -15.328125 L 4.765625 -15.328125 L 7.328125 -7.453125 C 7.640625 -6.484375 7.914062 -5.503906 8.15625 -4.515625 C 8.394531 -3.523438 8.632812 -2.5 8.875 -1.4375 L 7.984375 -1.4375 C 8.222656 -2.5 8.457031 -3.519531 8.6875 -4.5 C 8.925781 -5.488281 9.195312 -6.472656 9.5 -7.453125 L 12.03125 -15.328125 L 16.375 -15.328125 L 10.734375 0 Z M 6.015625 0 "/></g></g></g><g fill="#1e3a8a" fill-opacity="1"><g transform="translate(58.274733, 33.216921)"><g><path d="M 6.0625 0.296875 C 5.082031 0.296875 4.203125 0.125 3.421875 -0.21875 C 2.648438 -0.5625 2.039062 -1.070312 1.59375 -1.75 C 1.15625 -2.4375 0.9375 -3.28125 0.9375 -4.28125 C 0.9375 -5.144531 1.09375 -5.863281 1.40625 -6.4375 C 1.71875 -7.007812 2.144531 -7.472656 2.6875 -7.828125 C 3.238281 -8.179688 3.863281 -8.445312 4.5625 -8.625 C 5.257812 -8.800781 5.992188 -8.925781 6.765625 -9 C 7.660156 -9.09375 8.378906 -9.175781 8.921875 -9.25 C 9.472656 -9.332031 9.867188 -9.457031 10.109375 -9.625 C 10.359375 -9.789062 10.484375 -10.039062 10.484375 -10.375 L 10.484375 -10.453125 C 10.484375 -10.878906 10.390625 -11.238281 10.203125 -11.53125 C 10.015625 -11.832031 9.738281 -12.0625 9.375 -12.21875 C 9.019531 -12.382812 8.582031 -12.46875 8.0625 -12.46875 C 7.53125 -12.46875 7.066406 -12.382812 6.671875 -12.21875 C 6.285156 -12.0625 5.96875 -11.847656 5.71875 -11.578125 C 5.476562 -11.304688 5.304688 -11 5.203125 -10.65625 L 1.390625 -11.140625 C 1.597656 -12.066406 2.003906 -12.859375 2.609375 -13.515625 C 3.210938 -14.171875 3.976562 -14.671875 4.90625 -15.015625 C 5.84375 -15.367188 6.910156 -15.546875 8.109375 -15.546875 C 8.972656 -15.546875 9.796875 -15.441406 10.578125 -15.234375 C 11.359375 -15.035156 12.054688 -14.722656 12.671875 -14.296875 C 13.285156 -13.867188 13.765625 -13.328125 14.109375 -12.671875 C 14.453125 -12.023438 14.625 -11.25 14.625 -10.34375 L 14.625 0 L 10.671875 0 L 10.671875 -2.140625 L 10.546875 -2.140625 C 10.296875 -1.660156 9.960938 -1.234375 9.546875 -0.859375 C 9.140625 -0.492188 8.648438 -0.207031 8.078125 0 C 7.503906 0.195312 6.832031 0.296875 6.0625 0.296875 Z M 7.234375 -2.609375 C 7.890625 -2.609375 8.460938 -2.738281 8.953125 -3 C 9.441406 -3.257812 9.820312 -3.601562 10.09375 -4.03125 C 10.375 -4.46875 10.515625 -4.960938 10.515625 -5.515625 L 10.515625 -7.140625 C 10.390625 -7.054688 10.207031 -6.976562 9.96875 -6.90625 C 9.738281 -6.832031 9.476562 -6.769531 9.1875 -6.71875 C 8.894531 -6.664062 8.597656 -6.613281 8.296875 -6.5625 C 7.992188 -6.519531 7.71875 -6.476562 7.46875 -6.4375 C 6.96875 -6.363281 6.519531 -6.242188 6.125 -6.078125 C 5.738281 -5.921875 5.4375 -5.707031 5.21875 -5.4375 C 5.007812 -5.164062 4.90625 -4.820312 4.90625 -4.40625 C 4.90625 -4.019531 5.003906 -3.691406 5.203125 -3.421875 C 5.410156 -3.160156 5.6875 -2.957031 6.03125 -2.8125 C 6.375 -2.675781 6.773438 -2.609375 7.234375 -2.609375 Z M 7.234375 -2.609375 "/></g></g></g><g fill="#1e3a8a" fill-opacity="1"><g transform="translate(74.586133, 33.216921)"><g><path d="M 1.796875 0 L 1.796875 -20.671875 L 8.25 -20.671875 L 11.609375 -11.15625 C 11.742188 -10.707031 11.898438 -10.140625 12.078125 -9.453125 C 12.265625 -8.765625 12.453125 -8.023438 12.640625 -7.234375 C 12.835938 -6.453125 13.015625 -5.691406 13.171875 -4.953125 C 13.335938 -4.222656 13.476562 -3.585938 13.59375 -3.046875 L 12.703125 -3.046875 C 12.804688 -3.578125 12.9375 -4.207031 13.09375 -4.9375 C 13.257812 -5.664062 13.4375 -6.425781 13.625 -7.21875 C 13.820312 -8.007812 14.007812 -8.75 14.1875 -9.4375 C 14.363281 -10.132812 14.53125 -10.707031 14.6875 -11.15625 L 17.984375 -20.671875 L 24.453125 -20.671875 L 24.453125 0 L 20.203125 0 L 20.203125 -9.765625 C 20.203125 -10.222656 20.207031 -10.785156 20.21875 -11.453125 C 20.238281 -12.117188 20.257812 -12.832031 20.28125 -13.59375 C 20.300781 -14.363281 20.320312 -15.140625 20.34375 -15.921875 C 20.363281 -16.703125 20.378906 -17.441406 20.390625 -18.140625 L 20.703125 -18.140625 C 20.515625 -17.378906 20.3125 -16.59375 20.09375 -15.78125 C 19.882812 -14.976562 19.671875 -14.195312 19.453125 -13.4375 C 19.234375 -12.675781 19.03125 -11.976562 18.84375 -11.34375 C 18.65625 -10.707031 18.488281 -10.179688 18.34375 -9.765625 L 14.90625 0 L 11.359375 0 L 7.875 -9.765625 C 7.71875 -10.179688 7.546875 -10.703125 7.359375 -11.328125 C 7.171875 -11.960938 6.960938 -12.660156 6.734375 -13.421875 C 6.515625 -14.179688 6.296875 -14.960938 6.078125 -15.765625 C 5.859375 -16.566406 5.644531 -17.359375 5.4375 -18.140625 L 5.828125 -18.140625 C 5.835938 -17.472656 5.847656 -16.75 5.859375 -15.96875 C 5.878906 -15.195312 5.898438 -14.421875 5.921875 -13.640625 C 5.941406 -12.859375 5.960938 -12.132812 5.984375 -11.46875 C 6.003906 -10.800781 6.015625 -10.234375 6.015625 -9.765625 L 6.015625 0 Z M 1.796875 0 "/></g></g></g><g fill="#1e3a8a" fill-opacity="1"><g transform="translate(100.814754, 33.216921)"><g><path d="M 1.703125 0 L 1.703125 -15.328125 L 5.84375 -15.328125 L 5.84375 0 Z M 3.78125 -17.3125 C 3.132812 -17.3125 2.585938 -17.519531 2.140625 -17.9375 C 1.691406 -18.351562 1.46875 -18.859375 1.46875 -19.453125 C 1.46875 -20.054688 1.691406 -20.566406 2.140625 -20.984375 C 2.585938 -21.398438 3.132812 -21.609375 3.78125 -21.609375 C 4.414062 -21.609375 4.953125 -21.398438 5.390625 -20.984375 C 5.835938 -20.566406 6.0625 -20.054688 6.0625 -19.453125 C 6.0625 -18.859375 5.835938 -18.351562 5.390625 -17.9375 C 4.953125 -17.519531 4.414062 -17.3125 3.78125 -17.3125 Z M 3.78125 -17.3125 "/></g></g></g><g fill="#1e3a8a" fill-opacity="1"><g transform="translate(108.360164, 33.216921)"><g><path d="M 5.84375 -8.796875 L 5.84375 0 L 1.703125 0 L 1.703125 -15.328125 L 5.640625 -15.328125 L 5.703125 -11.46875 L 5.359375 -11.46875 C 5.773438 -12.757812 6.398438 -13.757812 7.234375 -14.46875 C 8.078125 -15.1875 9.15625 -15.546875 10.46875 -15.546875 C 11.53125 -15.546875 12.457031 -15.3125 13.25 -14.84375 C 14.050781 -14.382812 14.664062 -13.71875 15.09375 -12.84375 C 15.53125 -11.976562 15.75 -10.9375 15.75 -9.71875 L 15.75 0 L 11.609375 0 L 11.609375 -8.984375 C 11.609375 -9.953125 11.363281 -10.707031 10.875 -11.25 C 10.382812 -11.789062 9.703125 -12.0625 8.828125 -12.0625 C 8.242188 -12.0625 7.726562 -11.929688 7.28125 -11.671875 C 6.832031 -11.421875 6.476562 -11.054688 6.21875 -10.578125 C 5.96875 -10.097656 5.84375 -9.503906 5.84375 -8.796875 Z M 5.84375 -8.796875 "/></g></g></g><g fill="#1e3a8a" fill-opacity="1"><g transform="translate(125.808924, 33.216921)"><g><path d="M 8.640625 0.3125 C 7.078125 0.3125 5.726562 -0.0078125 4.59375 -0.65625 C 3.46875 -1.3125 2.597656 -2.226562 1.984375 -3.40625 C 1.367188 -4.59375 1.0625 -5.988281 1.0625 -7.59375 C 1.0625 -9.175781 1.363281 -10.5625 1.96875 -11.75 C 2.582031 -12.9375 3.441406 -13.863281 4.546875 -14.53125 C 5.660156 -15.207031 6.960938 -15.546875 8.453125 -15.546875 C 9.472656 -15.546875 10.421875 -15.378906 11.296875 -15.046875 C 12.179688 -14.710938 12.953125 -14.21875 13.609375 -13.5625 C 14.273438 -12.914062 14.789062 -12.101562 15.15625 -11.125 C 15.519531 -10.144531 15.703125 -9.019531 15.703125 -7.75 L 15.703125 -6.59375 L 2.703125 -6.59375 L 2.703125 -9.203125 L 13.703125 -9.203125 L 11.765625 -8.515625 C 11.765625 -9.316406 11.640625 -10.007812 11.390625 -10.59375 C 11.140625 -11.175781 10.769531 -11.625 10.28125 -11.9375 C 9.800781 -12.257812 9.207031 -12.421875 8.5 -12.421875 C 7.78125 -12.421875 7.171875 -12.257812 6.671875 -11.9375 C 6.171875 -11.613281 5.789062 -11.164062 5.53125 -10.59375 C 5.269531 -10.03125 5.140625 -9.382812 5.140625 -8.65625 L 5.140625 -6.828125 C 5.140625 -5.960938 5.285156 -5.226562 5.578125 -4.625 C 5.867188 -4.03125 6.285156 -3.578125 6.828125 -3.265625 C 7.367188 -2.953125 8.003906 -2.796875 8.734375 -2.796875 C 9.222656 -2.796875 9.664062 -2.867188 10.0625 -3.015625 C 10.46875 -3.160156 10.8125 -3.367188 11.09375 -3.640625 C 11.375 -3.910156 11.585938 -4.25 11.734375 -4.65625 L 15.5 -4.109375 C 15.257812 -3.222656 14.828125 -2.445312 14.203125 -1.78125 C 13.578125 -1.125 12.796875 -0.609375 11.859375 -0.234375 C 10.921875 0.128906 9.847656 0.3125 8.640625 0.3125 Z M 8.640625 0.3125 "/></g></g></g></svg>