<svg xmlns="http://www.w3.org/2000/svg" xmlns:xlink="http://www.w3.org/1999/xlink" width="512" zoomAndPan="magnify" viewBox="0 0 384 383.999986" height="512" preserveAspectRatio="xMidYMid meet" version="1.0"><defs><clipPath id="bff8b0b085"><path d="M 73.800781 52 L 310.050781 52 L 310.050781 332 L 73.800781 332 Z M 73.800781 52 " clip-rule="nonzero"/></clipPath></defs><rect x="-38.4" width="460.8" fill="#ffffff" y="-38.399999" height="460.799983" fill-opacity="1"/><rect x="-38.4" width="460.8" fill="#1e3a8a" y="-38.399999" height="460.799983" fill-opacity="1"/><g clip-path="url(#bff8b0b085)"><path fill="#ffffff" d="M 109.835938 273.480469 L 74.148438 331.859375 L 73.800781 52.105469 L 180.011719 52.105469 C 240.402344 52.105469 283.613281 92.894531 283.613281 143.042969 C 283.613281 177.925781 262.617188 207.078125 235.195312 219.570312 L 310.167969 331.851562 L 207.566406 254.789062 C 175.859375 230.976562 130.527344 239.644531 109.835938 273.480469 Z M 148.078125 174.976562 L 178.445312 175.152344 C 194.234375 175.324219 208.640625 164.222656 208.640625 147.03125 C 208.640625 129.679688 194.0625 118.914062 178.445312 118.914062 L 148.078125 118.914062 Z M 148.078125 174.976562 " fill-opacity="1" fill-rule="nonzero"/></g></svg>