<svg xmlns="http://www.w3.org/2000/svg" xmlns:xlink="http://www.w3.org/1999/xlink" width="48" zoomAndPan="magnify" viewBox="0 0 36 36.000001" height="48" preserveAspectRatio="xMidYMid meet" version="1.0"><defs><clipPath id="b242322c3c"><path d="M 5.269531 1.664062 L 32.269531 1.664062 L 32.269531 33.042969 L 5.269531 33.042969 Z M 5.269531 1.664062 " clip-rule="nonzero"/></clipPath></defs><g clip-path="url(#b242322c3c)"><path fill="#ffffff" d="M 9.347656 26.726562 L 5.308594 33.328125 L 5.269531 1.6875 L 17.285156 1.6875 C 24.113281 1.6875 29.003906 6.300781 29.003906 11.972656 C 29.003906 15.917969 26.628906 19.214844 23.527344 20.628906 L 32.003906 33.328125 L 20.402344 24.609375 C 16.8125 21.917969 11.6875 22.898438 9.347656 26.726562 Z M 13.671875 15.582031 L 17.105469 15.601562 C 18.894531 15.621094 20.523438 14.367188 20.523438 12.421875 C 20.523438 10.460938 18.875 9.242188 17.105469 9.242188 L 13.671875 9.242188 Z M 13.671875 15.582031 " fill-opacity="1" fill-rule="nonzero"/></g></svg>