<svg xmlns="http://www.w3.org/2000/svg" xmlns:xlink="http://www.w3.org/1999/xlink" width="78" zoomAndPan="magnify" viewBox="0 0 58.5 58.499999" height="78" preserveAspectRatio="xMidYMid meet" version="1.0"><defs><clipPath id="8d04bf4515"><path d="M 3.726562 3.726562 L 54.292969 3.726562 L 54.292969 54.292969 L 3.726562 54.292969 Z M 3.726562 3.726562 " clip-rule="nonzero"/></clipPath><clipPath id="d56f1001e9"><path d="M 20.847656 17.402344 L 40.183594 17.402344 L 40.183594 40.453125 L 20.847656 40.453125 Z M 20.847656 17.402344 " clip-rule="nonzero"/></clipPath></defs><g clip-path="url(#8d04bf4515)"><path fill="#ffb300" d="M 54.292969 29.011719 C 54.292969 29.839844 54.253906 30.664062 54.171875 31.488281 C 54.09375 32.3125 53.96875 33.132812 53.808594 33.945312 C 53.648438 34.753906 53.445312 35.558594 53.207031 36.351562 C 52.964844 37.144531 52.6875 37.921875 52.371094 38.6875 C 52.054688 39.453125 51.699219 40.199219 51.308594 40.929688 C 50.917969 41.660156 50.492188 42.371094 50.035156 43.058594 C 49.574219 43.746094 49.082031 44.410156 48.554688 45.050781 C 48.03125 45.691406 47.476562 46.304688 46.890625 46.890625 C 46.304688 47.476562 45.691406 48.03125 45.050781 48.554688 C 44.410156 49.082031 43.746094 49.574219 43.058594 50.035156 C 42.371094 50.492188 41.660156 50.917969 40.929688 51.308594 C 40.199219 51.699219 39.453125 52.054688 38.6875 52.371094 C 37.921875 52.6875 37.144531 52.964844 36.351562 53.207031 C 35.558594 53.445312 34.753906 53.648438 33.945312 53.808594 C 33.132812 53.96875 32.3125 54.09375 31.488281 54.171875 C 30.664062 54.253906 29.839844 54.292969 29.011719 54.292969 C 28.183594 54.292969 27.355469 54.253906 26.53125 54.171875 C 25.707031 54.09375 24.890625 53.96875 24.078125 53.808594 C 23.265625 53.648438 22.464844 53.445312 21.671875 53.207031 C 20.878906 52.964844 20.101562 52.6875 19.335938 52.371094 C 18.570312 52.054688 17.824219 51.699219 17.09375 51.308594 C 16.363281 50.917969 15.652344 50.492188 14.964844 50.035156 C 14.273438 49.574219 13.609375 49.082031 12.972656 48.554688 C 12.332031 48.03125 11.71875 47.476562 11.132812 46.890625 C 10.546875 46.304688 9.992188 45.691406 9.464844 45.050781 C 8.941406 44.410156 8.449219 43.746094 7.988281 43.058594 C 7.527344 42.371094 7.101562 41.660156 6.710938 40.929688 C 6.320312 40.199219 5.96875 39.453125 5.652344 38.6875 C 5.335938 37.921875 5.054688 37.144531 4.816406 36.351562 C 4.574219 35.558594 4.375 34.753906 4.210938 33.945312 C 4.050781 33.132812 3.929688 32.3125 3.847656 31.488281 C 3.765625 30.664062 3.726562 29.839844 3.726562 29.011719 C 3.726562 28.183594 3.765625 27.355469 3.847656 26.53125 C 3.929688 25.707031 4.050781 24.890625 4.210938 24.078125 C 4.375 23.265625 4.574219 22.464844 4.816406 21.671875 C 5.054688 20.878906 5.335938 20.101562 5.652344 19.335938 C 5.96875 18.570312 6.320312 17.824219 6.710938 17.09375 C 7.101562 16.363281 7.527344 15.652344 7.988281 14.964844 C 8.449219 14.273438 8.941406 13.609375 9.464844 12.972656 C 9.992188 12.332031 10.546875 11.71875 11.132812 11.132812 C 11.71875 10.546875 12.332031 9.992188 12.972656 9.464844 C 13.609375 8.941406 14.273438 8.449219 14.964844 7.988281 C 15.652344 7.527344 16.363281 7.101562 17.09375 6.710938 C 17.824219 6.320312 18.570312 5.96875 19.335938 5.652344 C 20.101562 5.335938 20.878906 5.054688 21.671875 4.816406 C 22.464844 4.574219 23.265625 4.375 24.078125 4.210938 C 24.890625 4.050781 25.707031 3.929688 26.53125 3.847656 C 27.355469 3.765625 28.183594 3.726562 29.011719 3.726562 C 29.839844 3.726562 30.664062 3.765625 31.488281 3.847656 C 32.3125 3.929688 33.132812 4.050781 33.945312 4.210938 C 34.753906 4.375 35.558594 4.574219 36.351562 4.816406 C 37.144531 5.054688 37.921875 5.335938 38.6875 5.652344 C 39.453125 5.96875 40.199219 6.320312 40.929688 6.710938 C 41.660156 7.101562 42.371094 7.527344 43.058594 7.988281 C 43.746094 8.449219 44.410156 8.941406 45.050781 9.464844 C 45.691406 9.992188 46.304688 10.546875 46.890625 11.132812 C 47.476562 11.71875 48.03125 12.332031 48.554688 12.972656 C 49.082031 13.609375 49.574219 14.273438 50.035156 14.964844 C 50.492188 15.652344 50.917969 16.363281 51.308594 17.09375 C 51.699219 17.824219 52.054688 18.570312 52.371094 19.335938 C 52.6875 20.101562 52.964844 20.878906 53.207031 21.671875 C 53.445312 22.464844 53.648438 23.265625 53.808594 24.078125 C 53.96875 24.890625 54.09375 25.707031 54.171875 26.53125 C 54.253906 27.355469 54.292969 28.183594 54.292969 29.011719 Z M 54.292969 29.011719 " fill-opacity="1" fill-rule="nonzero"/></g><path fill="#ffca28" d="M 52.828125 29.011719 C 52.828125 29.789062 52.789062 30.570312 52.714844 31.34375 C 52.636719 32.121094 52.523438 32.890625 52.371094 33.65625 C 52.21875 34.421875 52.03125 35.179688 51.804688 35.925781 C 51.578125 36.671875 51.316406 37.40625 51.015625 38.125 C 50.71875 38.847656 50.382812 39.550781 50.015625 40.238281 C 49.648438 40.925781 49.25 41.59375 48.816406 42.242188 C 48.382812 42.890625 47.917969 43.519531 47.421875 44.121094 C 46.925781 44.722656 46.40625 45.300781 45.851562 45.851562 C 45.300781 46.40625 44.722656 46.925781 44.121094 47.421875 C 43.519531 47.917969 42.890625 48.382812 42.242188 48.816406 C 41.59375 49.25 40.925781 49.648438 40.238281 50.015625 C 39.550781 50.382812 38.847656 50.71875 38.125 51.015625 C 37.40625 51.316406 36.671875 51.578125 35.925781 51.804688 C 35.179688 52.03125 34.421875 52.21875 33.65625 52.371094 C 32.890625 52.523438 32.121094 52.636719 31.34375 52.714844 C 30.570312 52.789062 29.789062 52.828125 29.011719 52.828125 C 28.230469 52.828125 27.453125 52.789062 26.675781 52.714844 C 25.898438 52.636719 25.128906 52.523438 24.363281 52.371094 C 23.597656 52.21875 22.84375 52.03125 22.097656 51.804688 C 21.351562 51.578125 20.617188 51.316406 19.894531 51.015625 C 19.175781 50.71875 18.472656 50.382812 17.78125 50.015625 C 17.09375 49.648438 16.425781 49.25 15.777344 48.816406 C 15.128906 48.382812 14.503906 47.917969 13.902344 47.421875 C 13.296875 46.925781 12.71875 46.40625 12.167969 45.851562 C 11.617188 45.300781 11.09375 44.722656 10.597656 44.121094 C 10.105469 43.519531 9.640625 42.890625 9.207031 42.242188 C 8.773438 41.59375 8.371094 40.925781 8.003906 40.238281 C 7.636719 39.550781 7.304688 38.847656 7.003906 38.125 C 6.707031 37.40625 6.445312 36.671875 6.21875 35.925781 C 5.992188 35.179688 5.800781 34.421875 5.648438 33.65625 C 5.5 32.890625 5.382812 32.121094 5.308594 31.34375 C 5.230469 30.570312 5.191406 29.789062 5.191406 29.011719 C 5.191406 28.230469 5.230469 27.453125 5.308594 26.675781 C 5.382812 25.898438 5.5 25.128906 5.648438 24.363281 C 5.800781 23.597656 5.992188 22.84375 6.21875 22.097656 C 6.445312 21.351562 6.707031 20.617188 7.003906 19.894531 C 7.304688 19.175781 7.636719 18.472656 8.003906 17.78125 C 8.371094 17.09375 8.773438 16.425781 9.207031 15.777344 C 9.640625 15.128906 10.105469 14.503906 10.597656 13.902344 C 11.09375 13.296875 11.617188 12.71875 12.167969 12.167969 C 12.71875 11.617188 13.296875 11.09375 13.902344 10.597656 C 14.503906 10.105469 15.128906 9.640625 15.777344 9.207031 C 16.425781 8.773438 17.09375 8.371094 17.78125 8.003906 C 18.472656 7.636719 19.175781 7.304688 19.894531 7.003906 C 20.617188 6.707031 21.351562 6.445312 22.097656 6.21875 C 22.84375 5.992188 23.597656 5.800781 24.363281 5.648438 C 25.128906 5.5 25.898438 5.382812 26.675781 5.308594 C 27.453125 5.230469 28.230469 5.191406 29.011719 5.191406 C 29.789062 5.191406 30.570312 5.230469 31.34375 5.308594 C 32.121094 5.382812 32.890625 5.5 33.65625 5.648438 C 34.421875 5.800781 35.179688 5.992188 35.925781 6.21875 C 36.671875 6.445312 37.40625 6.707031 38.125 7.003906 C 38.847656 7.304688 39.550781 7.636719 40.238281 8.003906 C 40.925781 8.371094 41.59375 8.773438 42.242188 9.207031 C 42.890625 9.640625 43.519531 10.105469 44.121094 10.597656 C 44.722656 11.09375 45.300781 11.617188 45.851562 12.167969 C 46.40625 12.71875 46.925781 13.296875 47.421875 13.902344 C 47.917969 14.503906 48.382812 15.128906 48.816406 15.777344 C 49.25 16.425781 49.648438 17.09375 50.015625 17.78125 C 50.382812 18.472656 50.71875 19.175781 51.015625 19.894531 C 51.316406 20.617188 51.578125 21.351562 51.804688 22.097656 C 52.03125 22.84375 52.21875 23.597656 52.371094 24.363281 C 52.523438 25.128906 52.636719 25.898438 52.714844 26.675781 C 52.789062 27.453125 52.828125 28.230469 52.828125 29.011719 Z M 52.828125 29.011719 " fill-opacity="1" fill-rule="nonzero"/><path fill="#ffa000" d="M 49.164062 29.011719 C 49.164062 29.671875 49.132812 30.328125 49.066406 30.984375 C 49.003906 31.644531 48.90625 32.296875 48.777344 32.941406 C 48.648438 33.589844 48.488281 34.230469 48.296875 34.859375 C 48.105469 35.492188 47.882812 36.113281 47.628906 36.722656 C 47.378906 37.332031 47.097656 37.929688 46.785156 38.511719 C 46.472656 39.09375 46.136719 39.660156 45.769531 40.207031 C 45.402344 40.757812 45.007812 41.285156 44.589844 41.796875 C 44.171875 42.304688 43.726562 42.796875 43.261719 43.261719 C 42.796875 43.726562 42.304688 44.171875 41.796875 44.589844 C 41.285156 45.007812 40.757812 45.402344 40.207031 45.769531 C 39.660156 46.136719 39.09375 46.472656 38.511719 46.785156 C 37.929688 47.097656 37.332031 47.378906 36.722656 47.628906 C 36.113281 47.882812 35.492188 48.105469 34.859375 48.296875 C 34.230469 48.488281 33.589844 48.648438 32.941406 48.777344 C 32.296875 48.90625 31.644531 49.003906 30.984375 49.066406 C 30.328125 49.132812 29.671875 49.164062 29.011719 49.164062 C 28.351562 49.164062 27.691406 49.132812 27.035156 49.066406 C 26.378906 49.003906 25.726562 48.90625 25.078125 48.777344 C 24.433594 48.648438 23.792969 48.488281 23.160156 48.296875 C 22.527344 48.105469 21.90625 47.882812 21.296875 47.628906 C 20.6875 47.378906 20.09375 47.097656 19.511719 46.785156 C 18.929688 46.472656 18.363281 46.136719 17.8125 45.769531 C 17.265625 45.402344 16.734375 45.007812 16.226562 44.589844 C 15.714844 44.171875 15.226562 43.726562 14.761719 43.261719 C 14.292969 42.796875 13.851562 42.304688 13.433594 41.796875 C 13.011719 41.285156 12.621094 40.757812 12.253906 40.207031 C 11.886719 39.660156 11.546875 39.09375 11.238281 38.511719 C 10.925781 37.929688 10.644531 37.332031 10.390625 36.722656 C 10.136719 36.113281 9.917969 35.492188 9.726562 34.859375 C 9.535156 34.230469 9.371094 33.589844 9.246094 32.941406 C 9.117188 32.296875 9.019531 31.644531 8.953125 30.984375 C 8.890625 30.328125 8.855469 29.671875 8.855469 29.011719 C 8.855469 28.351562 8.890625 27.691406 8.953125 27.035156 C 9.019531 26.378906 9.117188 25.726562 9.246094 25.078125 C 9.371094 24.433594 9.535156 23.792969 9.726562 23.160156 C 9.917969 22.527344 10.136719 21.90625 10.390625 21.296875 C 10.644531 20.6875 10.925781 20.09375 11.238281 19.511719 C 11.546875 18.929688 11.886719 18.363281 12.253906 17.8125 C 12.621094 17.265625 13.011719 16.734375 13.433594 16.226562 C 13.851562 15.714844 14.292969 15.226562 14.761719 14.761719 C 15.226562 14.292969 15.714844 13.851562 16.226562 13.433594 C 16.734375 13.011719 17.265625 12.621094 17.8125 12.253906 C 18.363281 11.886719 18.929688 11.546875 19.511719 11.238281 C 20.09375 10.925781 20.6875 10.644531 21.296875 10.390625 C 21.90625 10.136719 22.527344 9.917969 23.160156 9.726562 C 23.792969 9.535156 24.433594 9.371094 25.078125 9.246094 C 25.726562 9.117188 26.378906 9.019531 27.035156 8.953125 C 27.691406 8.890625 28.351562 8.855469 29.011719 8.855469 C 29.671875 8.855469 30.328125 8.890625 30.984375 8.953125 C 31.644531 9.019531 32.296875 9.117188 32.941406 9.246094 C 33.589844 9.371094 34.230469 9.535156 34.859375 9.726562 C 35.492188 9.917969 36.113281 10.136719 36.722656 10.390625 C 37.332031 10.644531 37.929688 10.925781 38.511719 11.238281 C 39.09375 11.546875 39.660156 11.886719 40.207031 12.253906 C 40.757812 12.621094 41.285156 13.011719 41.796875 13.433594 C 42.304688 13.851562 42.796875 14.292969 43.261719 14.761719 C 43.726562 15.226562 44.171875 15.714844 44.589844 16.226562 C 45.007812 16.734375 45.402344 17.265625 45.769531 17.8125 C 46.136719 18.363281 46.472656 18.929688 46.785156 19.511719 C 47.097656 20.09375 47.378906 20.6875 47.628906 21.296875 C 47.882812 21.90625 48.105469 22.527344 48.296875 23.160156 C 48.488281 23.792969 48.648438 24.433594 48.777344 25.078125 C 48.90625 25.726562 49.003906 26.378906 49.066406 27.035156 C 49.132812 27.691406 49.164062 28.351562 49.164062 29.011719 Z M 49.164062 29.011719 " fill-opacity="1" fill-rule="nonzero"/><g clip-path="url(#d56f1001e9)"><path fill="#ffca28" d="M 23.832031 35.742188 L 20.875 40.574219 L 20.847656 17.417969 L 29.640625 17.417969 C 34.636719 17.417969 38.214844 20.792969 38.214844 24.945312 C 38.214844 27.832031 36.476562 30.246094 34.207031 31.28125 L 40.414062 40.574219 L 31.921875 34.195312 C 29.296875 32.222656 25.542969 32.941406 23.832031 35.742188 Z M 26.996094 27.589844 L 29.511719 27.601562 C 30.816406 27.617188 32.007812 26.699219 32.007812 25.277344 C 32.007812 23.839844 30.800781 22.949219 29.511719 22.949219 L 26.996094 22.949219 Z M 26.996094 27.589844 " fill-opacity="1" fill-rule="nonzero"/></g></svg>
